<?xml version="1.0" encoding="UTF-8"?>
<svg width="1200" height="900" xmlns="http://www.w3.org/2000/svg">
  <defs>
    <style>
      .module {
        fill: #f5f5f5;
        stroke: #333;
        stroke-width: 2;
      }
      .module-text {
        font-family: Arial, sans-serif;
        font-size: 14px;
        font-weight: bold;
        fill: #333;
        text-anchor: middle;
        dominant-baseline: middle;
      }
      .port {
        fill: #666;
        stroke: #333;
        stroke-width: 1;
      }
      .connection {
        stroke: #000;
        stroke-width: 2;
        fill: none;
        stroke-opacity: 1.0;
      }
    </style>
  </defs>

  <!-- Modules -->
  <g class="module-group" id="module-5">
    <rect class="module" x="112.7976" y="338.0" width="132.4" height="60.0" rx="5"/>
    <text class="module-text" x="178.9976" y="368.0">JuliaSource</text>
    <rect class="port" x="229.19760000000002" y="382.0" width="8.0" height="8.0"/>
  </g>
  <g class="module-group" id="module-4">
    <rect class="module" x="43.8" y="194.0" width="132.4" height="60.0" rx="5"/>
    <text class="module-text" x="110.0" y="224.0">JuliaSource</text>
    <rect class="port" x="160.2" y="238.0" width="8.0" height="8.0"/>
  </g>
  <g class="module-group" id="module-6">
    <rect class="module" x="100.1976" y="482.0" width="157.60000000000002" height="60.0" rx="5"/>
    <text class="module-text" x="178.9976" y="512.0">StandardOutput</text>
    <rect class="port" x="108.1976" y="490.0" width="8.0" height="8.0"/>
  </g>
  <g class="module-group" id="module-2">
    <rect class="module" x="189.0032" y="194.0" width="120.0" height="60.0" rx="5"/>
    <text class="module-text" x="249.0032" y="224.0">Sum</text>
    <rect class="port" x="197.0032" y="202.0" width="8.0" height="8.0"/>
    <rect class="port" x="293.0032" y="238.0" width="8.0" height="8.0"/>
  </g>
  <g class="module-group" id="module-3">
    <rect class="module" x="321.79920000000004" y="194.0" width="132.4" height="60.0" rx="5"/>
    <text class="module-text" x="387.99920000000003" y="224.0">JuliaSource</text>
    <rect class="port" x="438.1992" y="238.0" width="8.0" height="8.0"/>
  </g>
  <g class="module-group" id="module-1">
    <rect class="module" x="112.7976" y="50.0" width="132.4" height="60.0" rx="5"/>
    <text class="module-text" x="178.9976" y="80.0">JuliaSource</text>
    <rect class="port" x="229.19760000000002" y="94.0" width="8.0" height="8.0"/>
  </g>

  <!-- Connections -->
  <path class="connection" d="M 233.19760000000002,98.0 C 233.19760000000002,141.2 201.0032,162.8 201.0032,206.0"/>
  <path class="connection" d="M 233.19760000000002,386.0 C 233.19760000000002,429.2 112.1976,450.8 112.1976,494.0"/>

</svg>
